# File created by Blade
# Date/Time:  Wed Sep 24 19:53:44 2014
# Frame Rate: 120.000 fps
#------------------------------------------------------
:FULLY-SPECIFIED
:DEGREES
3478
root -5.909890 32.877172 -4.212820 7.476607 15.799413 -0.792085
Spine -18.695580 15.052896 -2.730586
Head 1.407089 -6.262676 21.781080
LeftShoulder -13.064576 9.311849 19.627091
LeftArm 146.332944 -68.274301 -188.299395
LeftForeArm -58.334894 0.000000 106.218746
LeftHand -22.820505 -0.000000 24.215247
LeftHandThumb1 -26.253704 0.000000 33.147579
RightShoulder -17.684915 12.062070 -15.037956
RightArm -15.726001 -6.497485 72.914735
RightForeArm -21.968581 -0.000000 19.783321
RightHand -7.825854 -0.000000 9.084770
RightHandThumb1 -24.326973 -0.000000 -32.862282
LeftUpLeg -3.306001 -1.958269 5.687778
LeftLeg -2.609702 -0.000000 0.000000
LeftFoot -7.282185 0.997729 -18.315509
LeftToeBase 11.750268 -0.000000 -0.000000
RightUpLeg -1.016152 -16.419417 -2.440369
RightLeg 2.339356 -0.000000 -0.000000
RightFoot -7.312218 -8.405834 -10.871352
RightToeBase -0.505858 -0.000000 0.000000
3479
root -5.909842 32.876311 -4.208014 7.465083 15.742659 -0.793820
Spine -18.718250 15.092072 -2.766204
Head 1.433151 -6.267208 21.799096
LeftShoulder -12.973990 9.341572 19.642090
LeftArm 146.943214 -68.680260 -188.672008
LeftForeArm -58.371624 -0.000000 106.399332
LeftHand -22.803638 -0.000000 24.433157
LeftHandThumb1 -26.253704 0.000000 33.147579
RightShoulder -17.690573 12.041065 -15.021598
RightArm -15.754471 -6.468584 72.879042
RightForeArm -22.015509 0.000000 19.804166
RightHand -7.693502 -0.000000 9.166642
RightHandThumb1 -24.326973 -0.000000 -32.862282
LeftUpLeg -3.283494 -1.943662 5.686803
LeftLeg -2.590431 -0.000000 0.000000
LeftFoot -7.317049 1.020928 -18.307366
LeftToeBase 11.726056 -0.000000 -0.000000
RightUpLeg -1.001508 -16.372468 -2.447162
RightLeg 2.334502 -0.000000 -0.000000
RightFoot -7.321815 -8.413830 -10.907773
RightToeBase -0.470057 -0.000000 0.000000
3480
root -5.909943 32.875812 -4.202982 7.458195 15.696174 -0.802114
Spine -18.748052 15.110914 -2.792098
Head 1.465236 -6.246660 21.844936
LeftShoulder -12.969266 9.278048 19.730883
LeftArm 147.205329 -69.097789 -188.811915
LeftForeArm -58.321810 -0.000000 106.569310
LeftHand -22.742248 -0.000000 24.429345
LeftHandThumb1 -26.253704 0.000000 33.147579
RightShoulder -17.693552 12.017031 -14.996280
RightArm -15.763050 -6.481448 72.846954
RightForeArm -22.015549 -0.000000 19.796278
RightHand -7.798340 0.000000 8.985803
RightHandThumb1 -24.326973 -0.000000 -32.862282
LeftUpLeg -3.266135 -1.960793 5.694377
LeftLeg -2.578032 -0.000000 0.000000
LeftFoot -7.366545 1.077333 -18.312725
LeftToeBase 11.774441 -0.000000 -0.000000
RightUpLeg -0.990514 -16.344057 -2.444780
RightLeg 2.326336 -0.000000 -0.000000
RightFoot -7.324526 -8.399264 -10.896818
RightToeBase -0.511490 -0.000000 0.000000
3481
root -5.910470 32.875346 -4.199347 7.448138 15.638981 -0.808221
Spine -18.760284 15.142562 -2.806333
Head 1.501575 -6.216324 21.847449
LeftShoulder -12.971915 9.417525 19.741859
LeftArm 147.446598 -69.253396 -188.911563
LeftForeArm -58.096664 -0.000000 106.672544
LeftHand -22.817931 -0.000000 24.189428
LeftHandThumb1 -26.253704 0.000000 33.147579
RightShoulder -17.691802 12.012382 -14.985446
RightArm -15.783474 -6.476020 72.829048
RightForeArm -22.007438 -0.000000 19.795794
RightHand -7.798871 -0.000000 8.978598
RightHandThumb1 -24.326973 -0.000000 -32.862282
LeftUpLeg -3.244028 -1.964302 5.700310
LeftLeg -2.567387 -0.000000 0.000000
LeftFoot -7.401352 1.118490 -18.330400
LeftToeBase 11.595889 -0.000000 -0.000000
RightUpLeg -0.978472 -16.308032 -2.443659
RightLeg 2.313960 -0.000000 -0.000000
RightFoot -7.330884 -8.383043 -10.889262
RightToeBase -0.487183 -0.000000 0.000000
3482
root -5.911138 32.874857 -4.195850 7.436462 15.591745 -0.808652
Spine -18.765604 15.177144 -2.830973
Head 1.531214 -6.200766 21.861846
LeftShoulder -12.995727 9.521429 19.777682
LeftArm 147.544367 -69.395742 -188.911162
LeftForeArm -57.954334 -0.000000 106.799834
LeftHand -22.665719 -0.000000 23.989277
LeftHandThumb1 -26.253704 0.000000 33.147579
RightShoulder -17.714812 11.995368 -14.969404
RightArm -15.778973 -6.477287 72.813605
RightForeArm -21.982040 0.000000 19.787280
RightHand -7.676917 -0.000000 9.238996
RightHandThumb1 -24.326973 -0.000000 -32.862282
LeftUpLeg -3.226247 -1.971327 5.701269
LeftLeg -2.550779 -0.000000 0.000000
LeftFoot -7.436644 1.154584 -18.352640
LeftToeBase 11.737237 -0.000000 -0.000000
RightUpLeg -0.965219 -16.274391 -2.449676
RightLeg 2.310979 -0.000000 -0.000000
RightFoot -7.332341 -8.382145 -10.900271
RightToeBase -0.522314 -0.000000 0.000000
3483
root -5.910588 32.875021 -4.192540 7.424994 15.538469 -0.808821
Spine -18.769824 15.208671 -2.837967
Head 1.586957 -6.150101 21.860577
LeftShoulder -13.037402 9.582731 19.790214
LeftArm 147.680922 -69.526996 -188.925687
LeftForeArm -57.786507 -0.000000 106.912226
LeftHand -22.582298 -0.000000 23.766923
LeftHandThumb1 -26.253704 0.000000 33.147579
RightShoulder -17.719177 11.982564 -14.962114
RightArm -15.798035 -6.498214 72.802567
RightForeArm -22.041502 -0.000000 19.817289
RightHand -7.967467 -0.000000 8.961909
RightHandThumb1 -24.326973 -0.000000 -32.862282
LeftUpLeg -3.203995 -1.981383 5.698521
LeftLeg -2.537095 -0.000000 0.000000
LeftFoot -7.468804 1.205916 -18.356045
LeftToeBase 11.720967 -0.000000 -0.000000
RightUpLeg -0.956186 -16.298347 -2.458902
RightLeg 2.313571 -0.000000 -0.000000
RightFoot -7.348253 -8.315880 -10.920102
RightToeBase -0.499417 -0.000000 0.000000
3484
root -5.910908 32.874675 -4.189472 7.405870 15.481938 -0.813152
Spine -18.760108 15.250973 -2.836221
Head 1.626967 -6.107555 21.838413
LeftShoulder -13.055827 9.594125 19.825311
LeftArm 147.943669 -69.638215 -189.094906
LeftForeArm -57.681598 0.000000 107.022950
LeftHand -22.531194 -0.000000 23.701809
LeftHandThumb1 -26.253704 0.000000 33.147579
RightShoulder -17.724320 11.977428 -14.965563
RightArm -15.818773 -6.483426 72.796610
RightForeArm -22.071548 -0.000000 19.820560
RightHand -7.970428 -0.000000 8.969001
RightHandThumb1 -24.326973 -0.000000 -32.862282
LeftUpLeg -3.171037 -1.958974 5.697316
LeftLeg -2.532188 -0.000000 0.000000
LeftFoot -7.500539 1.235608 -18.330548
LeftToeBase 11.768934 -0.000000 -0.000000
RightUpLeg -0.937357 -16.275371 -2.464089
RightLeg 2.306685 -0.000000 -0.000000
RightFoot -7.354567 -8.285194 -10.915434
RightToeBase -0.510193 -0.000000 0.000000
3485
root -5.910345 32.875004 -4.187175 7.398040 15.426701 -0.808944
Spine -18.758588 15.292143 -2.842948
Head 1.678336 -6.063839 21.817611
LeftShoulder -13.082902 9.654457 19.852407
LeftArm 148.211394 -69.654377 -189.278884
LeftForeArm -57.626159 -0.000000 107.128458
LeftHand -22.493996 -0.000000 23.660125
LeftHandThumb1 -26.253704 0.000000 33.147579
RightShoulder -17.731955 11.960641 -14.960483
RightArm -15.836563 -6.449173 72.781604
RightForeArm -22.147930 -0.000000 19.847307
RightHand -7.928482 0.000000 8.943513
RightHandThumb1 -24.326973 -0.000000 -32.862282
LeftUpLeg -3.156857 -1.951292 5.689670
LeftLeg -2.510812 -0.000000 0.000000
LeftFoot -7.523117 1.269498 -18.333445
LeftToeBase 11.710778 -0.000000 -0.000000
RightUpLeg -0.934626 -16.268620 -2.478111
RightLeg 2.314555 -0.000000 -0.000000
RightFoot -7.377771 -8.240020 -10.903981
RightToeBase -0.465411 -0.000000 0.000000
3486
root -5.906895 32.875207 -4.183463 7.374643 15.368521 -0.785988
Spine -18.734826 15.323806 -2.851122
Head 1.742761 -6.025706 21.780107
LeftShoulder -13.096593 9.695526 19.873408
LeftArm 148.582787 -69.678432 -189.557474
LeftForeArm -57.548815 -0.000000 107.221841
LeftHand -22.441345 -0.000000 23.736888
LeftHandThumb1 -26.253704 0.000000 33.147579
RightShoulder -17.723718 11.942268 -14.957931
RightArm -15.842304 -6.434953 72.779984
RightForeArm -22.161259 -0.000000 19.845768
RightHand -7.908547 -0.000000 8.929808
RightHandThumb1 -24.326973 -0.000000 -32.862282
LeftUpLeg -3.109670 -1.921335 5.653556
LeftLeg -2.506853 -0.000000 0.000000
LeftFoot -7.538498 1.296095 -18.349397
LeftToeBase 11.776630 -0.000000 -0.000000
RightUpLeg -0.905888 -16.266855 -2.522680
RightLeg 2.320494 -0.000000 -0.000000
RightFoot -7.386661 -8.182280 -10.915575
RightToeBase -0.534039 -0.000000 0.000000
3487
root -5.907163 32.876257 -4.181559 7.362710 15.327788 -0.802192
Spine -18.728524 15.361793 -2.818798
Head 1.787823 -6.021806 21.723565
LeftShoulder -13.117606 9.743076 19.878177
LeftArm 148.891975 -69.646395 -189.782911
LeftForeArm -57.526735 -0.000000 107.304267
LeftHand -22.413425 -0.000000 23.641081
LeftHandThumb1 -26.253704 0.000000 33.147579
RightShoulder -17.729472 11.919059 -14.964437
RightArm -15.851385 -6.462388 72.778664
RightForeArm -22.108494 0.000000 19.852911
RightHand -7.882173 -0.000000 9.035191
RightHandThumb1 -24.326973 -0.000000 -32.862282
LeftUpLeg -3.099662 -1.912084 5.665207
LeftLeg -2.486313 -0.000000 0.000000
LeftFoot -7.561244 1.326313 -18.353985
LeftToeBase 11.750661 -0.000000 -0.000000
RightUpLeg -0.942466 -16.363702 -2.509421
RightLeg 2.404487 -0.000000 -0.000000
RightFoot -7.464625 -8.042877 -10.877741
RightToeBase -0.449937 -0.000000 0.000000
3488
root -5.906915 32.876407 -4.182762 7.372846 15.285277 -0.791312
Spine -18.731186 15.397006 -2.826851
Head 1.815814 -6.021951 21.687570
LeftShoulder -13.128126 9.777086 19.899503
LeftArm 149.240105 -69.627818 -190.033469
LeftForeArm -57.564284 0.000000 107.387787
LeftHand -22.397032 -0.000000 23.708061
LeftHandThumb1 -26.253704 0.000000 33.147579
RightShoulder -17.733868 11.920363 -14.970435
RightArm -15.873160 -6.436340 72.783438
RightForeArm -22.108118 -0.000000 19.834102
RightHand -7.817286 -0.000000 8.977462
RightHandThumb1 -24.326973 -0.000000 -32.862282
LeftUpLeg -3.107340 -1.929759 5.654011
LeftLeg -2.476058 -0.000000 0.000000
LeftFoot -7.581979 1.379931 -18.357838
LeftToeBase 11.712168 -0.000000 -0.000000
RightUpLeg -0.932405 -16.276903 -2.525382
RightLeg 2.355532 -0.000000 -0.000000
RightFoot -7.449577 -8.063657 -10.854880
RightToeBase -0.407157 -0.000000 0.000000
3489
root -5.907094 32.876584 -4.183080 7.372663 15.248432 -0.793447
Spine -18.722211 15.423985 -2.808969
Head 1.846588 -6.002257 21.649724
LeftShoulder -13.170665 9.809201 19.906280
LeftArm 149.513878 -69.605528 -190.200348
LeftForeArm -57.608303 -0.000000 107.479685
LeftHand -22.542940 -0.000000 23.981908
LeftHandThumb1 -26.253704 0.000000 33.147579
RightShoulder -17.731215 11.916249 -14.976216
RightArm -15.886527 -6.452231 72.788794
RightForeArm -22.111718 -0.000000 19.821113
RightHand -7.820471 -0.000000 8.904249
RightHandThumb1 -24.326973 -0.000000 -32.862282
LeftUpLeg -3.109246 -1.885387 5.649472
LeftLeg -2.457196 -0.000000 0.000000
LeftFoot -7.595760 1.374158 -18.323744
LeftToeBase 11.740533 -0.000000 -0.000000
RightUpLeg -0.941942 -16.270608 -2.525759
RightLeg 2.359799 -0.000000 -0.000000
RightFoot -7.450061 -8.044888 -10.861479
RightToeBase -0.438765 -0.000000 0.000000
3490
root -5.907441 32.877320 -4.182403 7.367536 15.217573 -0.806650
Spine -18.713317 15.453668 -2.778418
Head 1.865058 -5.996230 21.622714
LeftShoulder -13.175949 9.826746 19.912400
LeftArm 149.928064 -69.642440 -190.501235
LeftForeArm -57.556098 -0.000000 107.573540
LeftHand -22.674996 -0.000000 24.004083
LeftHandThumb1 -26.253704 0.000000 33.147579
RightShoulder -17.735837 11.896955 -14.971050
RightArm -15.882102 -6.465567 72.779826
RightForeArm -22.076722 -0.000000 19.812464
RightHand -7.865122 0.000000 8.801264
RightHandThumb1 -24.326973 -0.000000 -32.862282
LeftUpLeg -3.103832 -1.866739 5.659757
LeftLeg -2.449178 -0.000000 0.000000
LeftFoot -7.604386 1.375098 -18.344225
LeftToeBase 11.723970 -0.000000 -0.000000
RightUpLeg -0.992822 -16.387933 -2.511005
RightLeg 2.451825 -0.000000 -0.000000
RightFoot -7.454693 -7.961455 -10.968343
RightToeBase -0.585800 -0.000000 0.000000
